<svg width="189" height="75" fill="none" xmlns="http://www.w3.org/2000/svg"><path d="M146.819 43.23c.034 1.009-.493 1.534-1.582 1.574-1.09.039-1.647-.445-1.68-1.453-.03-.993.493-1.509 1.583-1.548 1.089-.042 1.649.434 1.679 1.427zm8.377-.212c-1.104.986-2.263 1.502-3.471 1.544-1.365.052-2.481-.48-3.344-1.59-.672-.852-1.023-1.727-1.053-2.619-.006-.183 0-.323.012-.42l.935-8.255c.082-.783.439-1.59 1.071-2.422.575-.751 1.211-1.33 1.904-1.737.92-.53 1.755-.81 2.506-.836 1.18-.043 2.194.34 3.041 1.152.844.813 1.289 1.858 1.329 3.131.009.265 0 .507-.021.722-.106.98-.706 1.492-1.792 1.531-.844.033-1.329-.215-1.453-.74l-.027-.87a1.351 1.351 0 00-.475-1.002c-.303-.27-.639-.398-1.011-.385-.339.013-.714.173-1.123.487-.454.33-.699.662-.735.992l-.878 7.957c-.036.317.097.627.4.93a1.41 1.41 0 001.098.431c.86-.029 1.465-.535 1.819-1.508.024-.2.1-.493.224-.878.276-.539.817-.823 1.631-.856.954-.036 1.441.327 1.462 1.087.024.729-.182 1.5-.617 2.309a6.445 6.445 0 01-1.432 1.845zm12.629-3.821c-.082.784-.442 1.58-1.074 2.4-.56.767-1.187 1.345-1.88 1.734-.935.532-1.776.81-2.527.84-1.364.048-2.478-.48-3.344-1.591-.672-.852-1.023-1.727-1.053-2.618a2.85 2.85 0 01.012-.422l.935-8.253c.082-.784.439-1.59 1.072-2.423.575-.751 1.21-1.329 1.903-1.737.92-.529 1.755-.81 2.506-.836.324-.013.684.016 1.083.085.833.134 1.592.63 2.27 1.492.681.862 1.035 1.747 1.062 2.655.003.133-.006.257-.033.372l-.932 8.302zm-3.238-.052l.893-7.957c.036-.316-.128-.626-.491-.927-.363-.3-.699-.444-1.007-.434-.355.013-.742.18-1.163.503-.423.323-.65.656-.683 1.005l-.896 7.908c-.034.35.124.67.481.963.357.294.696.435 1.017.422.339-.014.723-.18 1.153-.503.426-.32.66-.647.696-.98zm20.349 3.118c-.037.314-.264.588-.681.82a2.29 2.29 0 01-1.038.31 1.958 1.958 0 01-.99-.209c-.372-.183-.539-.457-.505-.823l1.319-11.796c.033-.366-.124-.692-.472-.98-.348-.287-.693-.42-1.032-.411-.324.013-.702.18-1.141.5-.439.323-.678.653-.711.982l-1.35 11.849c-.036.313-.266.588-.687.82a2.343 2.343 0 01-1.068.31 1.876 1.876 0 01-.971-.235c-.391-.203-.566-.467-.53-.8l1.344-11.8c.048-.382-.1-.712-.448-.99-.345-.277-.696-.407-1.05-.394-.339.013-.712.176-1.117.49-.451.33-.693.662-.729.995l-1.356 11.845c-.036.32-.263.591-.687.823a2.31 2.31 0 01-1.068.314 1.956 1.956 0 01-.972-.235c-.387-.203-.566-.467-.529-.8l1.37-11.973c.082-.78.439-1.59 1.072-2.422.575-.752 1.21-1.33 1.903-1.734.92-.53 1.756-.81 2.506-.836 1.289-.046 2.336.375 3.147 1.273 1.166-.97 2.316-1.476 3.45-1.518.321-.013.684.016 1.087.085.832.134 1.589.63 2.27 1.492.68.859 1.035 1.744 1.062 2.654.006.15 0 .275-.012.373l-1.386 12.021zM39.943 67.972c.854.346 1.205 1.012 1.22 1.86.003.207-.01.4-.052.781-.239 1.871-1.237 3.396-3.577 3.445l-3.075.062c-.32.006-.469-.163-.408-.51l1.528-10.578c.058-.346.248-.522.57-.532l2.738-.056c1.97-.039 2.642.898 2.666 2.194.006.242-.024.52-.078.918-.16 1.038-.642 1.913-1.532 2.416zm-2.39 4.32c1.264-.027 1.528-.654 1.655-1.558.072-.503.084-.66.081-.797-.015-.881-.596-1.06-1.156-1.048l-1.604.033-.499 3.399 1.522-.03zm2.018-6.423c.073-.47.085-.623.082-.76-.015-.761-.448-.908-.881-.902l-1.555.033-.442 3.053 1.489-.03c.977-.02 1.177-.58 1.307-1.394zm2.176 4.467l.2-1.388c.341-2.413 1.728-3.84 3.57-3.875 1.795-.04 2.73 1.22 2.412 3.235l-.114.744c-.173 1.11-.424 1.323-1.338 1.342l-2.917.06-.07.522c-.13.832.121 1.364 1.195 1.341l1.922-.039c.32-.006.451.163.394.51l-.03.189c-.116.816-.654 1.068-2.419 1.104-2.418.052-3.177-1.212-2.805-3.745zm2.027-1.375l1.94-.04c.273-.006.318-.058.379-.404l.057-.382c.13-.865-.215-1.31-.905-1.293-.768.016-1.225.474-1.356 1.342l-.115.777zm7.025 2.383c-.016-.845.102-1.456.774-1.469l.72-.016c.273-.007.433.11.44.372.005.21-.055.47-.052.66.015.829.439 1.253 1.207 1.237.963-.02 1.735-.728 1.72-1.714-.037-1.988-3.841-1.46-3.892-4.398-.046-2.609 1.643-4.045 3.583-4.084 1.761-.04 2.757.858 2.784 2.448.015.83-.103 1.47-.775 1.486l-.72.013c-.273.006-.436-.092-.439-.353-.006-.241.054-.502.051-.692-.015-.777-.405-1.152-1.077-1.136-.947.02-1.61.604-1.589 1.743.037 1.972 3.838 1.375 3.892 4.366.045 2.54-1.722 4.045-3.71 4.087-1.861.036-2.887-.927-2.917-2.55zm7.247-1.341l.2-1.388c.342-2.41 1.728-3.84 3.568-3.876 1.795-.039 2.73 1.221 2.412 3.236l-.115.744c-.172 1.11-.424 1.326-1.338 1.342l-2.914.06-.07.518c-.13.833.122 1.365 1.196 1.342l1.922-.039c.32-.007.45.163.393.51l-.027.189c-.115.816-.654 1.067-2.418 1.103-2.418.052-3.178-1.214-2.809-3.741zm2.028-1.375l1.94-.04c.272-.006.318-.058.375-.404l.058-.382c.13-.865-.215-1.31-.905-1.293-.769.016-1.226.474-1.353 1.342l-.115.777zm4.476 1.237l.2-1.387c.342-2.413 1.728-3.84 3.568-3.876 1.794-.039 2.73 1.221 2.412 3.236l-.115.744c-.173 1.11-.424 1.323-1.338 1.342l-2.914.062-.07.52c-.13.832.121 1.364 1.195 1.341l1.922-.039c.32-.006.451.163.394.51l-.028.189c-.115.816-.653 1.067-2.418 1.103-2.42.053-3.18-1.214-2.808-3.745zm2.025-1.37l1.94-.04c.272-.007.317-.059.375-.405l.057-.382c.13-.865-.215-1.31-.905-1.293-.768.016-1.225.474-1.353 1.342l-.114.777zm4.339 4.351l.914-6.294c.157-1.091.536-1.43 1.19-1.702a5.31 5.31 0 011.9-.381c2.194-.046 2.839 1.012 2.512 3.353l-.714 4.907c-.06.346-.23.522-.551.529l-.85.016c-.321.007-.467-.163-.41-.51l.727-5.08c.142-1.022-.09-1.469-.938-1.45-.306.007-.593.03-.784.102-.209.075-.27.18-.327.526l-.856 5.949c-.06.346-.23.522-.55.528l-.851.017c-.324.006-.47-.163-.412-.51z" fill="#FF662B"/><path d="M188.153 65.06a13.49 13.49 0 00-2.527-3.145c-6.704-6.2-18.666-4.016-27.089-3.066-13.164 1.486-26.301 3.269-39.465 4.744-6.652.745-13.31 1.41-19.98 1.92-5.408.412-12.426-.653-16.687 3.719-.154.16-.309.326-.378.532-.7 2.126 21.268.719 22.648.61 12.287-.975 24.392-3.12 36.591-4.822a254.492 254.492 0 0123.294-2.161c6.951-.323 14.98-1.6 21.311 2.194 1.017.643 1.961 1.437 3.129 1.802-.027-.888-.396-1.54-.847-2.328zM37.967 37.898a42.863 42.863 0 00-2.31-5.44 115.354 115.354 0 00-2.835-5.253 107.449 107.449 0 01-2.636-4.842 35.739 35.739 0 01-2.021-4.72 16.36 16.36 0 01-.887-4.516c-.036-.748.11-1.538.427-2.348a4.907 4.907 0 011.492-2.027c.65-.54 1.519-.843 2.578-.898.92-.06 1.631.202 2.167.78.636.686 1.071 1.541 1.338 2.609a9.507 9.507 0 01.23 3.366c-.121 1.08-.418 2.005-.89 2.743-.372.587-.823.868-1.456.904l-1.168.065.04 1.26c.054 1.728.641 3.096 1.737 4.062 1.022.904 2.281 1.4 3.737 1.482 1.407.069 2.818-.267 4.188-1.018 1.39-.764 2.542-1.972 3.43-3.595.889-1.63 1.28-3.722 1.161-6.22a15.244 15.244 0 00-2.218-7.264c-1.335-2.194-3.056-3.958-5.127-5.244C36.838.478 34.535-.113 32.105.018c-2.47.137-4.694.74-6.615 1.792-1.913 1.045-3.535 2.41-4.824 4.049a17.122 17.122 0 00-2.872 5.482A17.562 17.562 0 0017 17.417c.079 1.645.357 3.294.826 4.894a41.108 41.108 0 001.667 4.623 106.82 106.82 0 002.04 4.48c.693 1.42 1.362 2.866 1.986 4.3.608 1.4 1.12 2.817 1.519 4.212.387 1.355.617 2.722.68 4.064.052 1.094-.024 2.319-.226 3.638a15.28 15.28 0 01-1.066 3.718c-.478 1.104-1.131 2.038-1.948 2.772-.757.686-1.69 1.048-2.848 1.11-1.39.085-2.488-.209-3.344-.875-.905-.702-1.568-1.606-2.022-2.762-.472-1.198-.714-2.514-.717-3.905-.003-1.413.22-2.775.663-4.058.43-1.247 1.05-2.253 1.894-3.072.778-.755 1.731-1.153 2.917-1.221l1.187-.066-.06-1.283c-.055-1.15-.694-2.138-1.901-2.942a11.99 11.99 0 00-3.235-1.492c-1.23-.365-2.255-.519-3.123-.473-2.443.137-4.613 1.045-6.45 2.694-1.776 1.596-3.162 3.588-4.112 5.925-.95 2.332-1.395 4.748-1.32 7.21.149 3.088.884 5.726 2.188 7.842 1.286 2.083 2.924 3.751 4.86 4.963a18.77 18.77 0 006.129 2.468c1.725.362 3.398.542 4.996.542.381 0 .76-.01 1.132-.03 2.321-.13 4.694-.607 7.051-1.416a20.223 20.223 0 006.546-3.729c1.982-1.685 3.565-3.86 4.7-6.468 1.14-2.622 1.634-5.785 1.462-9.406a20.417 20.417 0 00-1.105-5.776z" fill="#193C57"/><path d="M80.169 54.099c-.248-1.16-.373-2.51-.373-4.045 0-3.18.249-6.19.745-9.031a78.231 78.231 0 011.813-8.013c.71-2.5 1.431-4.838 2.16-7.02a118.487 118.487 0 001.94-6.242c.53-1.91.793-3.67.793-5.28 0-1.93-.663-3.627-1.988-5.093-1.326-1.466-2.848-2.563-4.57-3.294-1.722-.735-3.277-.973-4.67-.725-1.392.251-2.203 1.107-2.433 2.573a14.676 14.676 0 01-.944 3.643 22.697 22.697 0 00-4.073-2.386c-1.392-.624-2.7-.937-3.925-.937-3.378 0-6.368.894-8.967 2.68-2.6 1.786-4.827 4.117-6.682 6.994a43.97 43.97 0 00-4.546 9.35c-1.174 3.357-2.036 6.68-2.581 9.969-.545 3.288-.82 6.18-.82 8.681 0 3.536.563 6.325 1.688 8.362 1.126 2.037 2.549 3.484 4.27 4.34 1.722.858 3.444 1.285 5.166 1.285 1.69 0 3.32-.607 4.894-1.821 1.574-1.215 3.072-2.84 4.497-4.878 1.422-2.038 2.748-4.323 3.974-6.86.1 2.393.563 4.62 1.389 6.674.829 2.053 2.278 3.715 4.345 4.985 2.07 1.267 5.027 1.904 8.867 1.904.83 0 1.25-.232 1.268-.696.016-.463-.142-1.195-.472-2.197-.26-.79-.514-1.763-.765-2.922zM68.224 26.467a253.2 253.2 0 01-2.908 9.031c-.978 2.84-1.961 5.192-2.957 7.05-.993 1.857-1.97 2.784-2.93 2.784-.929 0-1.44-.875-1.54-2.625-.1-1.75.13-3.895.693-6.432a45.897 45.897 0 012.41-7.584c1.043-2.517 2.25-4.653 3.625-6.403 1.373-1.75 2.823-2.625 4.345-2.625.53 0 .96.16 1.293.483-.657 2.034-1.338 4.144-2.031 6.321z" fill="#193C57"/><path d="M146.009 8.97c-.863-1.302-2.07-1.955-3.626-1.955-.366 0-.769.055-1.217.16a5.302 5.302 0 00-1.192.43c-.348.18-.52.376-.52.588 0 3.324-.472 7.343-1.417 12.058a129.155 129.155 0 01-3.553 13.8c-1.425 4.487-2.914 8.245-4.472 11.281-1.559 3.04-2.933 4.555-4.122 4.555-.829 0-1.235-.92-1.217-2.759.006-.787.064-1.681.152-2.648.051-.196.084-.395.145-.587.439-1.453 1.035-3.047.46-4.44-.509-1.232-1.737-2.032-2.7-2.806-1.256-1.008-2.412-2.151-3.64-3.196-2.869-2.432-7.739-4.79-11.249-2.344-.978.682-1.165 1.894-1.374 3.026-.508 2.782-1.649 5.264-3.011 7.663a56.176 56.176 0 01-2.854 4.555c-1.655 2.357-2.999 3.536-4.025 3.536-.763 0-1.06-.777-.896-2.331.167-1.554.581-3.546 1.244-5.978.663-2.43 1.422-5.055 2.285-7.879.996-3.252 1.894-6.37 2.709-9.354.811-2.98 1.216-5.315 1.216-6.993 0-1.75-.578-3.33-1.737-4.745a13.297 13.297 0 00-4.146-3.375c-1.607-.84-3.09-1.26-4.446-1.26-.959 0-1.755.215-2.384.642-.63.431-.945 1.143-.945 2.145 0 1.359-.272 3.164-.82 5.414a198.973 198.973 0 01-2.012 7.558 251.17 251.17 0 00-2.957 11.656c-.91 3.983-1.365 7.585-1.365 10.8.067 2.358.52 4.565 1.365 6.619.844 2.057 2.294 3.725 4.346 5.012 2.055 1.286 5 1.93 8.843 1.93 1.489 0 3.525-1.741 6.11-5.228 2.581-3.484 5.066-7.905 7.451-13.266-.2 1.858-.3 3.504-.3 4.93 0 1.894.596 3.896 1.788 6.005a16.88 16.88 0 004.794 5.358c2.004 1.466 4.198 2.197 6.582 2.197 2.185 0 4.413-1.215 6.682-3.644 2.267-2.429 4.428-5.527 6.483-9.298a100.529 100.529 0 005.514-11.98c1.622-4.215 2.911-8.208 3.873-11.979.96-3.768 1.441-6.781 1.441-9.03.006-1.92-.427-3.537-1.286-4.843z" fill="#193C57"/></svg>